# xmcd CD database file generated by OrangeCD 5.2
#
# Track frame offsets:
#	150
#	20013
#	37697
#	55899
#	74840
#	92533
#	114162
#	129292
#	148473
#	165696
#	179847
#	197915
#
# Disc length: 2871 seconds
#
# Revision: 0
# Processed by: cddbd v1.5.2PL0 Copyright (c) Steve Scherf et al.
# Submitted via: OrangeCD 5.2
#
DISCID=af0b350c
DTITLE=Rascal Flatts - Still Feels Good
DYEAR=2007
DGENRE=Country
TTITLE0=Take me there
TTITLE1=Here
TTITLE2=Bob that head
TTITLE3=Help me remember
TTITLE4=Still feels good
TTITLE5=Winner at a losing game
TTITLE6=No reins
TTITLE7=Every day
TTITLE8=Secret smile
TTITLE9=Better now
TTITLE10=She goes all the way
TTITLE11=How strong are you now?
EXTD=
EXTT0=
EXTT1=
EXTT2=
EXTT3=
EXTT4=
EXTT5=
EXTT6=
EXTT7=
EXTT8=
EXTT9=
EXTT10=
EXTT11=
PLAYORDER=
